<svg width="346" height="539" viewBox="0 0 346 539" fill="none" xmlns="http://www.w3.org/2000/svg">
<path fill-rule="evenodd" clip-rule="evenodd" d="M177.325 51.0341C183.493 43.7941 187.668 34.9215 186.97 24.9794C184.96 -3.66652 145.084 2.63521 137.327 17.0932C129.571 31.5512 130.492 68.2251 140.517 70.8091C144.515 71.8396 153.032 69.3153 161.7 64.0907L156.259 102.582H188.385L177.325 51.0341Z" fill="#B28B67"/>
<path fill-rule="evenodd" clip-rule="evenodd" d="M151.496 19.19C155.855 21.6286 158.958 26.1981 162.692 32.192C163.602 31.8345 164.593 31.6381 165.629 31.6381C170.065 31.6381 173.661 35.2339 173.661 39.6695C173.661 41.9213 172.734 43.9566 171.241 45.4149C173.099 48.038 175.182 50.7781 177.569 53.6055C186.475 48.2624 193.099 32.6894 184.595 17.6558C177.279 -12.4576 135.822 6.23347 127.846 1.15471C126.102 12.0824 131.725 20.8935 151.496 19.19Z" fill="#191847"/>
<path fill-rule="evenodd" clip-rule="evenodd" d="M189.678 218.789L123.979 385.075L79.9149 525.655H62.5148L129.88 218.789L189.678 218.789Z" fill="#997659"/>
<path fill-rule="evenodd" clip-rule="evenodd" d="M202.908 218.789C203.608 277.223 213.81 355.895 215.44 359.537C216.527 361.966 254.042 392.846 327.984 452.178L316 465.003C228.754 414.133 183.113 385.306 179.076 378.521C173.02 368.344 153.304 274.692 137.474 218.789H202.908Z" fill="#B28B67"/>
<path fill-rule="evenodd" clip-rule="evenodd" d="M329.587 447.897C333.612 449.32 336.385 450.669 337.905 451.944C339.754 453.496 342.194 456.068 345.225 459.661C343.425 461.806 327.248 481.084 296.696 517.495C290.466 514.829 288.512 511.711 290.833 508.14C293.153 504.57 295.053 501.58 296.531 499.17L307.103 462.234C307.306 461.523 308.047 461.112 308.758 461.315C308.77 461.319 308.782 461.322 308.794 461.326L314.436 463.115C318.349 461.291 321.093 459.442 322.665 457.568C323.943 456.045 325.092 453.427 326.114 449.712L326.114 449.712C326.506 448.286 327.979 447.448 329.405 447.84C329.466 447.857 329.527 447.876 329.587 447.897Z" fill="#E4E4E4"/>
<path fill-rule="evenodd" clip-rule="evenodd" d="M87.0398 519.165C88.5373 523.163 89.2861 526.154 89.2861 528.139C89.2861 530.553 88.884 534.075 88.0797 538.706C85.2795 538.706 60.1137 538.706 12.5823 538.706C10.6204 532.22 11.7529 528.718 15.9799 528.201C20.2069 527.684 23.7183 527.217 26.5141 526.8L61.6046 511.157C62.2798 510.856 63.0712 511.159 63.3722 511.834C63.3774 511.846 63.3824 511.858 63.3872 511.869L65.6428 517.341C69.5558 519.166 72.7356 520.079 75.1821 520.079C77.1698 520.079 79.9148 519.277 83.4172 517.671L83.4172 517.671C84.7612 517.055 86.3503 517.645 86.9664 518.989C86.993 519.047 87.0175 519.106 87.0398 519.165Z" fill="#E4E4E4"/>
<path fill-rule="evenodd" clip-rule="evenodd" d="M145.506 511.176L62.7766 502.197L124.089 218.789H198.186L145.506 511.176Z" fill="#69A1AC"/>
<path fill-rule="evenodd" clip-rule="evenodd" d="M310.872 431.488L256.607 495.719C199.45 433.294 166.128 392.562 156.639 373.522C147.151 354.482 138.621 302.905 131.051 218.789H214.471C218.607 292.79 221.394 331.513 222.834 334.956C224.274 338.4 253.62 370.577 310.872 431.488Z" fill="#89C5CC"/>
<path fill-rule="evenodd" clip-rule="evenodd" d="M68.9073 202.609L29.5684 240.738C18.1222 245.589 8.74371 250.945 1.43286 256.807C-0.211212 258.778 -2.00107 262.553 5.73431 260.864C13.4697 259.174 21.6826 257.743 23.1365 260.242C24.5903 262.742 20.3065 266.572 22.9934 269.843C24.7846 272.023 30.8088 265.087 41.0659 249.033L81.9731 225.071L68.9073 202.609ZM261.274 168.1L230.865 168.214C254.026 242.767 266.32 281.802 267.748 285.318C270.961 293.23 264.162 305.281 261.254 311.756C270.725 315.967 269.715 300.373 281.663 305.896C292.568 310.936 300.863 320.07 313.462 312.346C315.011 311.396 316.709 307.821 312.608 305.027C302.39 298.066 287.666 285.883 285.676 281.872C282.963 276.404 274.829 238.48 261.274 168.1Z" fill="#B28B67"/>
<path fill-rule="evenodd" clip-rule="evenodd" d="M168.613 82.3933L156.605 80.3469C137.688 146.784 40.4952 192.071 34.5287 216.907C32.3406 226.015 38.9381 230.619 35.5301 233.393L51.1385 244.746C53.7816 241.682 59.4221 247.286 71.2011 243.366C82.9802 239.445 168.613 161.061 168.613 82.3933Z" fill="#AF053D"/>
<path fill-rule="evenodd" clip-rule="evenodd" d="M148.414 91.226C149.798 179.184 98.6216 201.621 110.021 236.906C119.434 266.044 209.535 297.368 225.126 268.805C231.437 257.244 234.301 243.261 234.626 228.058C238.61 239.738 241.762 249.793 244.08 258.222C248.08 272.765 263.584 275.077 263.584 280.679L284.012 275.077C282.626 267.466 292.256 263.759 289.674 246.756C278.105 170.57 247.021 115.345 196.423 81.081L195.888 73.4788C195.675 70.5312 193.119 68.3088 190.17 68.5088L152.367 71.1352C149.417 71.3354 147.191 73.893 147.396 76.8429C147.397 76.8445 147.397 76.8461 147.402 76.8474L148.414 91.226Z" fill="#FC0254"/>
</svg>
